<svg id="SvgjsSvg1000" xmlns="http://www.w3.org/2000/svg" version="1.1" xmlns:xlink="http://www.w3.org/1999/xlink" xmlns:svgjs="http://svgjs.com/svgjs" width="166" height="42" viewBox="0 0 166 42"><title>logo</title><desc>Created with Avocode.</desc><defs id="SvgjsDefs1001"></defs><path id="SvgjsPath1007" d="M251.773 55.1966H247.237V71.1446C247.237 71.8888 247.14 72.6268 246.94899999999998 73.3586C246.75599999999997 74.09089999999999 246.438 74.74459999999999 245.99499999999998 75.3206C245.54999999999998 75.8965 244.962 76.36449999999999 244.23099999999997 76.7246C243.49799999999996 77.0846 242.59299999999996 77.2646 241.51299999999998 77.2646C240.43299999999996 77.2646 239.52599999999998 77.0846 238.795 76.7246C238.06199999999998 76.36449999999999 237.474 75.89649999999999 237.03099999999998 75.3206C236.58599999999998 74.7446 236.26799999999997 74.0909 236.07699999999997 73.3586C235.88399999999996 72.62679999999999 235.78899999999996 71.88879999999999 235.78899999999996 71.1446V55.1966H231.25299999999996V71.3246C231.25299999999996 72.8608 231.50999999999996 74.2467 232.02699999999996 75.4826C232.54199999999994 76.7189 233.26199999999997 77.7685 234.18699999999995 78.63260000000001C235.10999999999996 79.49650000000001 236.19599999999994 80.16250000000001 237.44499999999996 80.63050000000001C238.69199999999998 81.09850000000002 240.04799999999997 81.33250000000001 241.51299999999998 81.33250000000001C242.97599999999997 81.33250000000001 244.33199999999997 81.09850000000002 245.581 80.63050000000001C246.828 80.16250000000001 247.908 79.49650000000001 248.821 78.63260000000001C249.732 77.76850000000002 250.452 76.7189 250.981 75.4826C251.50799999999998 74.2467 251.773 72.86080000000001 251.773 71.3246ZM276.72 57.2846C275.73600000000005 56.3728 274.57800000000003 55.6888 273.24600000000004 55.232499999999995C271.91400000000004 54.776999999999994 270.6 54.54859999999999 269.30400000000003 54.54859999999999C268.15200000000004 54.54859999999999 267.01800000000003 54.69879999999999 265.90200000000004 54.99849999999999C264.78600000000006 55.29899999999999 263.79 55.75449999999999 262.91400000000004 56.36659999999999C262.03800000000007 56.97859999999999 261.33000000000004 57.752599999999994 260.79 58.688599999999994C260.25 59.624599999999994 259.98 60.74059999999999 259.98 62.03659999999999C259.98 63.23689999999999 260.172 64.2388 260.55600000000004 65.0426C260.94000000000005 65.84689999999999 261.43800000000005 66.5247 262.05000000000007 67.0766C262.6620000000001 67.6289 263.3520000000001 68.0728 264.12000000000006 68.40859999999999C264.88800000000003 68.74499999999999 265.65600000000006 69.0329 266.42400000000004 69.2726C267.216 69.53699999999999 267.97200000000004 69.7889 268.692 70.0286C269.41200000000003 70.2687 270.036 70.5505 270.564 70.8746C271.09200000000004 71.1986 271.512 71.5827 271.824 72.0266C272.136 72.471 272.29200000000003 73.02890000000001 272.29200000000003 73.70060000000001C272.29200000000003 74.397 272.15400000000005 74.97860000000001 271.87800000000004 75.4466C271.60200000000003 75.91460000000001 271.242 76.3049 270.79800000000006 76.6166C270.35400000000004 76.92880000000001 269.85600000000005 77.15090000000001 269.30400000000003 77.2826C268.752 77.4148 268.21200000000005 77.4806 267.684 77.4806C266.67600000000004 77.4806 265.65000000000003 77.2286 264.60600000000005 76.7246C263.56200000000007 76.2205 262.72800000000007 75.53659999999999 262.10400000000004 74.6725L258.86400000000003 77.6966C259.872 78.897 261.168 79.8026 262.752 80.41460000000001C264.336 81.0266 265.956 81.33250000000001 267.612 81.33250000000001C268.86 81.33250000000001 270.048 81.16440000000001 271.17600000000004 80.82860000000001C272.30400000000003 80.4928 273.28800000000007 79.98880000000001 274.12800000000004 79.3165C274.968 78.6449 275.64000000000004 77.7989 276.14400000000006 76.77860000000001C276.6480000000001 75.75880000000001 276.90000000000003 74.56460000000001 276.90000000000003 73.19660000000002C276.90000000000003 71.94890000000002 276.66600000000005 70.90490000000001 276.19800000000004 70.06460000000001C275.73 69.22480000000002 275.13000000000005 68.52890000000001 274.398 67.97650000000002C273.666 67.42480000000002 272.862 66.98090000000002 271.98600000000005 66.64460000000001C271.11000000000007 66.3088 270.26400000000007 66.00900000000001 269.44800000000004 65.7446C268.728 65.52860000000001 268.06800000000004 65.3125 267.468 65.09660000000001C266.868 64.88060000000002 266.358 64.6286 265.93800000000005 64.34060000000001C265.51800000000003 64.05260000000001 265.18800000000005 63.70490000000001 264.94800000000004 63.29650000000001C264.708 62.88880000000001 264.588 62.39660000000001 264.588 61.820600000000006C264.588 61.1968 264.726 60.66290000000001 265.002 60.21860000000001C265.278 59.77470000000001 265.632 59.41480000000001 266.064 59.13860000000001C266.49600000000004 58.863000000000014 266.976 58.658800000000014 267.504 58.52660000000001C268.03200000000004 58.39500000000001 268.56 58.32850000000001 269.088 58.32850000000001C269.976 58.32850000000001 270.858 58.53890000000001 271.73400000000004 58.95860000000001C272.61 59.37880000000001 273.288 59.90080000000001 273.76800000000003 60.52450000000001ZM289.608 80.6846H294.144V59.156600000000005H301.956V55.196600000000004H281.796V59.156600000000005H289.608ZM328.812 55.1966H324.276V71.1446C324.276 71.8888 324.18 72.6268 323.988 73.3586C323.796 74.09089999999999 323.478 74.74459999999999 323.034 75.3206C322.59 75.8965 322.002 76.36449999999999 321.27 76.7246C320.53799999999995 77.0846 319.632 77.2646 318.55199999999996 77.2646C317.472 77.2646 316.566 77.0846 315.83399999999995 76.7246C315.1019999999999 76.36449999999999 314.51399999999995 75.89649999999999 314.06999999999994 75.3206C313.6259999999999 74.7446 313.30799999999994 74.0909 313.11599999999993 73.3586C312.9239999999999 72.62679999999999 312.8279999999999 71.88879999999999 312.8279999999999 71.1446V55.1966H308.2919999999999V71.3246C308.2919999999999 72.8608 308.5499999999999 74.2467 309.0659999999999 75.4826C309.58199999999994 76.7189 310.3019999999999 77.7685 311.22599999999994 78.63260000000001C312.1499999999999 79.49650000000001 313.23599999999993 80.16250000000001 314.4839999999999 80.63050000000001C315.7319999999999 81.09850000000002 317.0879999999999 81.33250000000001 318.5519999999999 81.33250000000001C320.0159999999999 81.33250000000001 321.3719999999999 81.09850000000002 322.6199999999999 80.63050000000001C323.8679999999999 80.16250000000001 324.94799999999987 79.49650000000001 325.8599999999999 78.63260000000001C326.7719999999999 77.76850000000002 327.4919999999999 76.7189 328.0199999999999 75.4826C328.54799999999994 74.2467 328.8119999999999 72.86080000000001 328.8119999999999 71.3246ZM337.812 80.6846H346.848C348.504 80.6846 350.171 80.4387 351.85200000000003 79.9466C353.531 79.455 355.043 78.6927 356.38700000000006 77.6606C357.73100000000005 76.6289 358.82300000000004 75.3088 359.66400000000004 73.70060000000001C360.50300000000004 72.09290000000001 360.92400000000004 70.1726 360.92400000000004 67.9406C360.92400000000004 65.541 360.50300000000004 63.5305 359.66400000000004 61.9106C358.82300000000004 60.2905 357.73100000000005 58.9827 356.38700000000006 57.9866C355.04300000000006 56.9909 353.53100000000006 56.2766 351.85200000000003 55.844500000000004C350.17100000000005 55.412600000000005 348.504 55.196600000000004 346.848 55.196600000000004H337.812ZM342.348 76.7246V59.084599999999995H346.127C347.303 59.084599999999995 348.479 59.204899999999995 349.656 59.444599999999994C350.831 59.68469999999999 351.89300000000003 60.12859999999999 352.842 60.776599999999995C353.789 61.424499999999995 354.563 62.3246 355.164 63.476499999999994C355.763 64.62859999999999 356.06399999999996 66.11699999999999 356.06399999999996 67.94059999999999C356.06399999999996 69.6685 355.763 71.09679999999999 355.164 72.2246C354.563 73.35289999999999 353.789 74.24669999999999 352.842 74.9065C351.893 75.567 350.83099999999996 76.035 349.656 76.31049999999999C348.479 76.5867 347.303 76.7246 346.127 76.7246ZM373.775 80.6846H378.311V69.6326L387.887 55.1966H382.631L376.15099999999995 65.9246L369.74299999999994 55.1966H364.19899999999996L373.775 69.6326ZM375.585 40.2245C374.693 40.53 373.734 40.7203 372.804 41.0395C369.565 42.1504 366.11899999999997 42.916999999999994 362.864 44.003099999999996C361.859 44.33839999999999 360.825 44.559599999999996 359.85999999999996 44.892199999999995C359.359 45.064899999999994 359.25899999999996 45.1399 359.08099999999996 45.633199999999995C359.05699999999996 45.6994 358.97399999999993 45.749599999999994 359.00699999999995 45.892399999999995C359.22499999999997 46.84439999999999 360.28 46.826499999999996 361.15799999999996 47.11489999999999C362.58099999999996 47.58229999999999 364.12199999999996 47.96069999999999 365.53399999999993 48.44859999999999C366.11599999999993 48.64949999999999 366.6569999999999 48.692699999999995 367.23999999999995 48.89309999999999C368.39599999999996 49.28999999999999 369.68199999999996 49.60479999999999 370.83799999999997 50.00439999999999C371.01399999999995 50.065299999999986 371.10699999999997 50.01799999999999 371.28299999999996 50.07849999999999C372.93499999999995 50.645799999999994 374.72799999999995 51.12569999999999 376.40099999999995 51.63439999999999C376.727 51.73339999999999 377.03599999999994 51.546699999999994 377.2169999999999 51.48629999999999C377.9079999999999 51.255399999999995 378.60299999999995 51.10589999999999 379.25699999999995 50.893499999999996C381.8589999999999 50.049099999999996 384.5199999999999 49.441399999999994 387.08299999999997 48.596799999999995C388.679 48.07039999999999 390.318 47.724799999999995 391.86699999999996 47.18899999999999C392.43899999999996 46.991299999999995 393.25999999999993 46.93489999999999 393.758 46.67029999999999C394.00399999999996 46.54009999999999 394.05899999999997 46.26859999999999 394.241 46.07759999999999C394.26099999999997 44.873299999999986 393.555 44.96699999999999 392.683 44.66999999999999C392.096 44.469999999999985 391.42 44.27219999999999 390.828 44.07729999999999C390.606 44.027799999999985 390.383 43.978399999999986 390.161 43.92899999999999C387.932 43.12529999999999 385.502 42.62439999999999 383.263 41.85449999999999C382.43699999999995 41.570799999999984 381.63399999999996 41.48399999999999 380.815 41.187699999999985C380.012 40.89729999999999 379.131 40.750599999999984 378.293 40.44679999999998C377.712 40.23609999999998 377.15500000000003 39.977299999999985 376.36400000000003 40.002299999999984C376.163 40.159899999999986 375.855 40.13209999999999 375.58500000000004 40.224499999999985ZM393.091 49.2265C394.621 49.2481 394.538 50.516 394.53700000000003 52.079C394.53700000000003 53.2273 394.53700000000003 54.3759 394.53700000000003 55.524100000000004C394.53700000000003 56.0551 394.53700000000003 56.586200000000005 394.53700000000003 57.117200000000004C394.57200000000006 57.20270000000001 394.71000000000004 57.3329 394.76000000000005 57.4134C394.963 57.7458 395.09000000000003 58.0722 395.27900000000005 58.413700000000006C395.47300000000007 58.762800000000006 395.81700000000006 59.12650000000001 395.94700000000006 59.525000000000006C396.18300000000005 60.25090000000001 395.5930000000001 60.79990000000001 395.1310000000001 60.969800000000006C394.6120000000001 60.969800000000006 394.0920000000001 60.969800000000006 393.5730000000001 60.969800000000006C392.0660000000001 60.96990000000001 390.6000000000001 61.280300000000004 390.4200000000001 59.895500000000006C390.3740000000001 59.53680000000001 390.6290000000001 59.24770000000001 390.7540000000001 59.04350000000001C391.0330000000001 58.59040000000001 391.2180000000001 58.12800000000001 391.4960000000001 57.67280000000001C391.5970000000001 57.50750000000001 391.7960000000001 57.29510000000001 391.8670000000001 57.11720000000001C391.8670000000001 54.84520000000001 391.8670000000001 52.57270000000001 391.8670000000001 50.30080000000001C391.98100000000005 49.89050000000001 392.2800000000001 49.49730000000001 392.6460000000001 49.33760000000001C392.77700000000004 49.28050000000001 392.9720000000001 49.30060000000001 393.09100000000007 49.22650000000001Z " fill="#ffffff" fill-opacity="1" transform="matrix(1,0,0,1,-231,-40)"></path></svg>